<svg width="1252" height="762" viewBox="0 0 1252 762" fill="none" xmlns="http://www.w3.org/2000/svg">
<g opacity="0.07001">
<path d="M1217.9 466.186C1163.87 310.886 973.889 -4.25546 624.03 0.0435389C257.237 4.55054 86.354 355.605 64.991 401.489C33.688 468.726 -39.268 625.43 26.838 713.358C45.426 738.081 81.717 766.291 599.656 757.075C668.417 755.851 798.893 753.022 901.06 754.829C922.389 755.206 941.928 755.268 981.011 755.391C1077.48 755.694 1096.56 754.4 1115.24 752.02C1170.72 744.957 1199.52 741.289 1219.56 724.969C1288.43 668.889 1225.1 486.86 1217.9 466.186Z" fill="#9EA1BE"/>
</g>
<path d="M355.351 296.503C326.533 296.503 303.204 273.126 303.204 244.308C303.204 215.533 326.533 192.156 355.351 192.156C384.173 192.156 407.501 215.533 407.501 244.308C407.501 273.126 384.173 296.503 355.351 296.503ZM430.538 253.576V235.069C430.538 233.26 429.068 231.792 427.261 231.792H422.498C421.101 231.792 419.868 230.844 419.557 229.484C417.907 222.298 415.101 215.554 411.311 209.477C410.556 208.265 410.701 206.7 411.712 205.691L415.059 202.34C416.339 201.06 416.339 198.985 415.059 197.705L401.976 184.62C400.696 183.34 398.618 183.34 397.338 184.62L393.994 187.964C392.983 188.975 391.419 189.118 390.204 188.361C384.13 184.571 377.383 181.76 370.193 180.11C368.833 179.798 367.886 178.563 367.886 177.169V172.42C367.886 170.611 366.422 169.143 364.609 169.143H346.102C344.293 169.143 342.825 170.611 342.825 172.42V177.169C342.825 178.563 341.877 179.797 340.517 180.108C333.327 181.758 326.58 184.569 320.504 188.359C319.289 189.116 317.726 188.973 316.715 187.962L313.373 184.62C312.093 183.34 310.018 183.34 308.736 184.62L295.651 197.705C294.371 198.985 294.374 201.06 295.651 202.34L298.999 205.685C300.01 206.696 300.153 208.26 299.396 209.473C295.608 215.552 292.8 222.298 291.15 229.486C290.838 230.844 289.604 231.792 288.21 231.792H283.451C281.642 231.792 280.174 233.26 280.174 235.069V253.576C280.174 255.387 281.642 256.855 283.451 256.855H288.212C289.608 256.855 290.841 257.8 291.153 259.16C292.803 266.348 295.613 273.092 299.399 279.168C300.157 280.381 300.013 281.945 299.002 282.956L295.651 286.305C294.371 287.585 294.371 289.661 295.651 290.941L308.736 304.026C310.018 305.306 312.093 305.306 313.373 304.026L316.725 300.673C317.738 299.662 319.302 299.519 320.512 300.274C326.588 304.058 333.331 306.863 340.517 308.513C341.877 308.825 342.825 310.058 342.825 311.452V316.226C342.825 318.037 344.293 319.503 346.102 319.503H364.609C366.422 319.503 367.886 318.037 367.886 316.226V311.452C367.886 310.056 368.833 308.823 370.193 308.511C377.379 306.863 384.123 304.057 390.197 300.273C391.409 299.518 392.972 299.661 393.983 300.672L397.338 304.026C398.618 305.306 400.696 305.306 401.976 304.026C401.976 304.026 411.788 295.371 415.059 290.941C418.33 286.511 416.337 287.585 415.059 286.305L411.708 282.954C410.695 281.943 410.552 280.379 411.307 279.166C415.093 273.09 417.903 266.348 419.553 259.16C419.864 257.8 421.098 256.855 422.494 256.855H427.261C429.068 256.855 430.538 255.387 430.538 253.576Z" fill="#D9D9D9" stroke="#3875C4"/>
<path d="M464.416 343.47C445.886 343.47 430.884 328.439 430.884 309.907C430.884 291.404 445.886 276.373 464.416 276.373C482.948 276.373 497.951 291.404 497.951 309.907C497.951 328.439 482.948 343.47 464.416 343.47ZM515.654 316.223V303.611C515.654 302.376 514.654 301.378 513.421 301.378H510.174C509.224 301.378 508.383 300.731 508.17 299.805C507.047 294.907 505.133 290.312 502.553 286.17C502.037 285.343 502.134 284.277 502.824 283.589L505.106 281.305C505.978 280.433 505.978 279.02 505.106 278.148L496.189 269.23C495.317 268.356 493.903 268.356 493.031 269.23L490.75 271.509C490.06 272.199 488.995 272.295 488.168 271.779C484.026 269.197 479.429 267.282 474.531 266.155C473.605 265.942 472.958 265.103 472.958 264.151V260.915C472.958 259.682 471.958 258.682 470.725 258.682H458.113C456.88 258.682 455.88 259.682 455.88 260.915V264.151C455.88 265.103 455.233 265.942 454.307 266.155C449.407 267.28 444.81 269.196 440.666 271.778C439.841 272.294 438.774 272.197 438.086 271.507L435.807 269.23C434.935 268.358 433.522 268.358 432.65 269.23L423.732 278.148C422.86 279.02 422.86 280.433 423.732 281.305L426.012 283.586C426.7 284.276 426.798 285.341 426.283 286.168C423.701 290.31 421.787 294.907 420.664 299.805C420.451 300.731 419.61 301.378 418.66 301.378H415.417C414.184 301.378 413.184 302.376 413.184 303.611V316.223C413.184 317.456 414.184 318.456 415.417 318.456H418.662C419.612 318.456 420.453 319.101 420.664 320.027C421.791 324.927 423.705 329.523 426.285 333.663C426.801 334.49 426.704 335.555 426.014 336.245L423.732 338.527C422.86 339.399 422.86 340.815 423.732 341.687L432.65 350.604C433.522 351.476 434.935 351.476 435.807 350.604L438.093 348.318C438.781 347.63 439.846 347.532 440.673 348.047C444.813 350.625 449.409 352.538 454.307 353.661C455.233 353.874 455.88 354.715 455.88 355.665V358.919C455.88 360.152 456.88 361.152 458.113 361.152H470.725C471.958 361.152 472.958 360.152 472.958 358.919V355.665C472.958 354.713 473.605 353.874 474.531 353.661C479.428 352.538 484.023 350.624 488.163 348.046C488.99 347.531 490.055 347.628 490.743 348.318L493.031 350.604C493.903 351.476 495.317 351.476 496.189 350.604L505.106 341.687C505.978 340.815 505.978 339.399 505.106 338.527L502.82 336.243C502.132 335.555 502.034 334.488 502.549 333.661C505.129 329.521 507.043 324.926 508.168 320.029C508.381 319.103 509.222 318.456 510.172 318.456H513.421C514.654 318.456 515.654 317.456 515.654 316.223Z" fill="#B0B3CA"/>
<path d="M284.278 644.042C284.278 647.418 281.541 650.155 278.165 650.155C274.789 650.155 272.051 647.418 272.051 644.042C272.051 640.666 274.789 637.928 278.165 637.928C281.541 637.928 284.278 640.666 284.278 644.042Z" fill="#B6B9CE"/>
<path d="M1103.33 476.989C1103.33 480.365 1100.59 483.102 1097.22 483.102C1093.84 483.102 1091.1 480.365 1091.1 476.989C1091.1 473.613 1093.84 470.875 1097.22 470.875C1100.59 470.875 1103.33 473.613 1103.33 476.989Z" fill="#B6B9CE"/>
<path d="M1091.1 258.682C1091.1 262.058 1088.36 264.795 1084.99 264.795C1081.61 264.795 1078.87 262.058 1078.87 258.682C1078.87 255.306 1081.61 252.568 1084.99 252.568C1088.36 252.568 1091.1 255.306 1091.1 258.682Z" fill="#B6B9CE"/>
<path d="M869.01 184.483C869.01 186.601 867.293 188.318 865.175 188.318C863.057 188.318 861.34 186.601 861.34 184.483C861.34 182.365 863.057 180.648 865.175 180.648C867.293 180.648 869.01 182.365 869.01 184.483Z" fill="#B6B9CE"/>
<path d="M302.097 133.399C302.097 135.517 300.38 137.234 298.262 137.234C296.144 137.234 294.427 135.517 294.427 133.399C294.427 131.281 296.144 129.564 298.262 129.564C300.38 129.564 302.097 131.281 302.097 133.399Z" fill="#B6B9CE"/>
<path d="M386.976 369.558C386.976 371.676 385.259 373.393 383.143 373.393C381.023 373.393 379.306 371.676 379.306 369.558C379.306 367.44 381.023 365.723 383.143 365.723C385.259 365.723 386.976 367.44 386.976 369.558Z" fill="#B6B9CE"/>
<path d="M246.286 650.155C246.286 652.273 244.569 653.99 242.451 653.99C240.333 653.99 238.616 652.273 238.616 650.155C238.616 648.037 240.333 646.32 242.451 646.32C244.569 646.32 246.286 648.037 246.286 650.155Z" fill="#B6B9CE"/>
<path d="M1013.65 647.655C1013.65 651.031 1010.91 653.768 1007.53 653.768C1004.16 653.768 1001.42 651.031 1001.42 647.655C1001.42 644.279 1004.16 641.541 1007.53 641.541C1010.91 641.541 1013.65 644.279 1013.65 647.655Z" fill="#B6B9CE"/>
<path d="M1143.64 647.655C1143.64 651.031 1140.91 653.768 1137.53 653.768C1134.16 653.768 1131.42 651.031 1131.42 647.655C1131.42 644.279 1134.16 641.541 1137.53 641.541C1140.91 641.541 1143.64 644.279 1143.64 647.655Z" fill="#B6B9CE"/>
<path d="M413.615 116.727C413.615 120.103 410.878 122.84 407.502 122.84C404.126 122.84 401.388 120.103 401.388 116.727C401.388 113.351 404.126 110.613 407.502 110.613C410.878 110.613 413.615 113.351 413.615 116.727Z" fill="#B6B9CE"/>
<path d="M829.324 394.888C829.324 399.405 825.661 403.069 821.143 403.069C816.626 403.069 812.964 399.405 812.964 394.888C812.964 390.371 816.626 386.707 821.143 386.707C825.661 386.707 829.324 390.371 829.324 394.888Z" fill="#B6B9CE"/>
<path d="M225.97 293.732C225.97 298.249 222.308 301.913 217.791 301.913C213.274 301.913 209.612 298.249 209.612 293.732C209.612 289.215 213.274 285.551 217.791 285.551C222.308 285.551 225.97 289.215 225.97 293.732Z" fill="#B6B9CE"/>
<path d="M202.955 171.623H192.667C192.006 171.623 191.468 171.087 191.468 170.425V160.137C191.468 159.475 192.006 158.938 192.667 158.938H202.955C203.618 158.938 204.154 159.475 204.154 160.137V170.425C204.154 171.087 203.618 171.623 202.955 171.623Z" fill="white"/>
<path d="M219.923 171.623H209.635C208.972 171.623 208.436 171.087 208.436 170.425V160.137C208.436 159.475 208.972 158.938 209.635 158.938H219.923C220.584 158.938 221.122 159.475 221.122 160.137V170.425C221.122 171.087 220.584 171.623 219.923 171.623Z" fill="white"/>
<path d="M236.89 171.623H226.604C225.941 171.623 225.403 171.087 225.403 170.425V160.137C225.403 159.475 225.941 158.938 226.604 158.938H236.89C237.553 158.938 238.089 159.475 238.089 160.137V170.425C238.089 171.087 237.553 171.623 236.89 171.623Z" fill="white"/>
<path d="M1067.05 617.112H1056.76C1056.1 617.112 1055.56 616.576 1055.56 615.913V605.627C1055.56 604.964 1056.1 604.426 1056.76 604.426H1067.05C1067.71 604.426 1068.25 604.964 1068.25 605.627V615.913C1068.25 616.576 1067.71 617.112 1067.05 617.112Z" fill="#E1E2EB"/>
<path d="M1084.02 617.112H1073.73C1073.07 617.112 1072.53 616.576 1072.53 615.913V605.627C1072.53 604.964 1073.07 604.426 1073.73 604.426H1084.02C1084.68 604.426 1085.22 604.964 1085.22 605.627V615.913C1085.22 616.576 1084.68 617.112 1084.02 617.112Z" fill="#E1E2EB"/>
<path d="M1100.99 617.112H1090.7C1090.04 617.112 1089.5 616.576 1089.5 615.913V605.627C1089.5 604.964 1090.04 604.426 1090.7 604.426H1100.99C1101.65 604.426 1102.19 604.964 1102.19 605.627V615.913C1102.19 616.576 1101.65 617.112 1100.99 617.112Z" fill="#E1E2EB"/>
<path d="M282.603 610.157H272.315C271.654 610.157 271.116 609.621 271.116 608.958V598.672C271.116 598.009 271.654 597.471 272.315 597.471H282.603C283.266 597.471 283.802 598.009 283.802 598.672V608.958C283.802 609.621 283.266 610.157 282.603 610.157Z" fill="#E1E2EB"/>
<path d="M299.572 610.157H289.284C288.623 610.157 288.085 609.621 288.085 608.958V598.672C288.085 598.009 288.623 597.471 289.284 597.471H299.572C300.235 597.471 300.771 598.009 300.771 598.672V608.958C300.771 609.621 300.235 610.157 299.572 610.157Z" fill="#E1E2EB"/>
<path d="M316.54 610.157H306.252C305.591 610.157 305.053 609.621 305.053 608.958V598.672C305.053 598.009 305.591 597.471 306.252 597.471H316.54C317.203 597.471 317.739 598.009 317.739 598.672V608.958C317.739 609.621 317.203 610.157 316.54 610.157Z" fill="#E1E2EB"/>
<path d="M742.479 719.189H498.185C476.896 719.189 459.638 701.931 459.638 680.642V136.881C459.638 115.594 476.896 98.334 498.185 98.334H742.479C763.768 98.334 781.025 115.594 781.025 136.881V680.642C781.025 701.931 763.768 719.189 742.479 719.189Z" fill="#294568"/>
<path d="M741.244 710.366H499.418C480.774 710.366 465.656 695.25 465.656 676.602V137.535C465.656 118.887 480.774 103.771 499.418 103.771H741.244C759.892 103.771 775.009 118.887 775.009 137.535V676.602C775.009 695.25 759.892 710.366 741.244 710.366Z" fill="white"/>
<path d="M761.466 136.474V674.915C761.466 687.543 751.229 697.781 738.601 697.781H502.063C489.435 697.781 479.198 687.543 479.198 674.915V136.474C479.198 123.846 489.435 113.609 502.063 113.609H541.507C543.697 113.609 545.698 114.844 546.678 116.801L550.867 125.163C552.775 129.021 556.715 131.439 561 131.439H679.664C683.949 131.439 687.889 129.021 689.797 125.163L693.986 116.801C694.966 114.844 696.967 113.609 699.157 113.609H738.601C751.229 113.609 761.466 123.846 761.466 136.474Z" fill="#E1E2EB"/>
<path d="M670.132 121.656H574.558C572.335 121.656 570.533 119.855 570.533 117.632C570.533 115.409 572.335 113.607 574.558 113.607H670.132C672.355 113.607 674.157 115.409 674.157 117.632C674.157 119.855 672.355 121.656 670.132 121.656Z" fill="#E1E2EB"/>
<path d="M496.111 582.115C496.111 577.487 499.862 573.736 504.49 573.736H730.668C735.296 573.736 739.047 577.487 739.047 582.115V670.711C739.047 675.339 735.295 679.091 730.667 679.091H504.49C499.862 679.091 496.111 675.34 496.111 670.712V582.115Z" stroke="#7A83A6" stroke-linecap="round" stroke-linejoin="round" stroke-dasharray="2.84 2.84"/>
<path d="M724.052 352.638V414.52C724.052 417.855 721.343 420.564 718.008 420.564H602.767C599.431 420.564 596.723 417.855 596.723 414.52V352.638C596.723 349.302 599.431 346.594 602.767 346.594H718.008C721.343 346.594 724.052 349.302 724.052 352.638Z" stroke="#7A83A6" stroke-linecap="round" stroke-linejoin="round" stroke-dasharray="2.84 2.84"/>
<path d="M735.855 556.215H517.956C510.777 556.215 504.956 550.394 504.956 543.213V451.309C504.956 444.128 510.777 438.307 517.956 438.307H735.855C743.034 438.307 748.855 444.128 748.855 451.309V543.213C748.855 550.394 743.034 556.215 735.855 556.215Z" fill="#656F97"/>
<path d="M739.047 441.752V533.708C739.047 540.876 733.233 546.672 726.065 546.672H509.093C501.925 546.672 496.111 540.876 496.111 533.708V441.752C496.111 434.584 501.925 428.77 509.093 428.77H726.065C733.233 428.77 739.047 434.584 739.047 441.752Z" fill="#9EA1BE"/>
<path d="M580.034 537.086H516.112C511.266 537.086 507.335 533.158 507.335 528.31V464.388C507.335 459.542 511.266 455.613 516.112 455.613H580.034C584.882 455.613 588.81 459.542 588.81 464.388V528.31C588.81 533.158 584.882 537.086 580.034 537.086Z" fill="white"/>
<path d="M655.792 465.922H599.496C597.965 465.922 596.725 464.682 596.725 463.151C596.725 461.62 597.965 460.379 599.496 460.379H655.792C657.323 460.379 658.563 461.62 658.563 463.151C658.563 464.682 657.323 465.922 655.792 465.922Z" fill="#BABCD1"/>
<path d="M630.136 476.988H599.495C597.964 476.988 596.723 475.747 596.723 474.216C596.723 472.685 597.964 471.445 599.495 471.445H630.136C631.667 471.445 632.908 472.685 632.908 474.216C632.908 475.747 631.667 476.988 630.136 476.988Z" fill="#BABCD1"/>
<path d="M724.328 476.988H641.414C639.883 476.988 638.642 475.747 638.642 474.216C638.642 472.685 639.883 471.445 641.414 471.445H724.328C725.859 471.445 727.099 472.685 727.099 474.216C727.099 475.747 725.859 476.988 724.328 476.988Z" fill="#BABCD1"/>
<path d="M646.904 488.055H599.494C597.965 488.055 596.722 486.817 596.722 485.284C596.722 483.755 597.965 482.512 599.494 482.512H646.904C648.435 482.512 649.675 483.755 649.675 485.284C649.675 486.817 648.435 488.055 646.904 488.055Z" fill="#BABCD1"/>
<path d="M687.146 488.055H657.341C655.812 488.055 654.57 486.817 654.57 485.284C654.57 483.755 655.812 482.512 657.341 482.512H687.146C688.677 482.512 689.917 483.755 689.917 485.284C689.917 486.817 688.677 488.055 687.146 488.055Z" fill="#BABCD1"/>
<path d="M724.328 488.055H696.881C695.35 488.055 694.11 486.817 694.11 485.284C694.11 483.755 695.35 482.512 696.881 482.512H724.328C725.859 482.512 727.099 483.755 727.099 485.284C727.099 486.817 725.859 488.055 724.328 488.055Z" fill="#BABCD1"/>
<path d="M724.328 499.121H599.495C597.966 499.121 596.723 497.881 596.723 496.35C596.723 494.819 597.966 493.578 599.495 493.578H724.328C725.859 493.578 727.1 494.819 727.1 496.35C727.1 497.881 725.859 499.121 724.328 499.121Z" fill="#BABCD1"/>
<path d="M668.199 510.189H599.496C597.965 510.189 596.723 508.949 596.723 507.418C596.723 505.887 597.965 504.646 599.496 504.646H668.199C669.73 504.646 670.971 505.887 670.971 507.418C670.971 508.949 669.73 510.189 668.199 510.189Z" fill="#BABCD1"/>
<path d="M724.328 510.189H679.277C677.746 510.189 676.505 508.949 676.505 507.418C676.505 505.887 677.746 504.646 679.277 504.646H724.328C725.859 504.646 727.1 505.887 727.1 507.418C727.1 508.949 725.859 510.189 724.328 510.189Z" fill="#BABCD1"/>
<path d="M639.861 521.254H599.495C597.964 521.254 596.723 520.013 596.723 518.482C596.723 516.951 597.964 515.711 599.495 515.711H639.861C641.392 515.711 642.633 516.951 642.633 518.482C642.633 520.013 641.392 521.254 639.861 521.254Z" fill="#BABCD1"/>
<path d="M691.154 521.254H650.787C649.256 521.254 648.016 520.013 648.016 518.482C648.016 516.951 649.256 515.711 650.787 515.711H691.154C692.685 515.711 693.926 516.951 693.926 518.482C693.926 520.013 692.685 521.254 691.154 521.254Z" fill="#BABCD1"/>
<path d="M724.328 521.254H700.906C699.375 521.254 698.133 520.013 698.133 518.482C698.133 516.951 699.375 515.711 700.906 515.711H724.328C725.859 515.711 727.099 516.951 727.099 518.482C727.099 520.013 725.859 521.254 724.328 521.254Z" fill="#BABCD1"/>
<path d="M655.792 532.32H599.496C597.965 532.32 596.725 531.08 596.725 529.549C596.725 528.018 597.965 526.777 599.496 526.777H655.792C657.323 526.777 658.563 528.018 658.563 529.549C658.563 531.08 657.323 532.32 655.792 532.32Z" fill="#BABCD1"/>
<path d="M724.328 465.922H668.032C666.501 465.922 665.261 464.682 665.261 463.151C665.261 461.62 666.501 460.379 668.032 460.379H724.328C725.859 460.379 727.099 461.62 727.099 463.151C727.099 464.682 725.859 465.922 724.328 465.922Z" fill="#BABCD1"/>
<path d="M739.047 441.75V445.614H496.111V441.75C496.111 434.582 501.925 428.768 509.093 428.768H726.065C733.233 428.768 739.047 434.582 739.047 441.75Z" fill="#334D6F"/>
<path d="M693.256 437.494C693.256 439.157 691.909 440.504 690.246 440.504C688.585 440.504 687.238 439.157 687.238 437.494C687.238 435.833 688.585 434.484 690.246 434.484C691.909 434.484 693.256 435.833 693.256 437.494Z" fill="#E1E2EB"/>
<path d="M708.654 437.494C708.654 439.157 707.307 440.504 705.644 440.504C703.983 440.504 702.636 439.157 702.636 437.494C702.636 435.833 703.983 434.484 705.644 434.484C707.307 434.484 708.654 435.833 708.654 437.494Z" fill="#E1E2EB"/>
<path d="M724.052 437.494C724.052 439.157 722.705 440.504 721.042 440.504C719.381 440.504 718.034 439.157 718.034 437.494C718.034 435.833 719.381 434.484 721.042 434.484C722.705 434.484 724.052 435.833 724.052 437.494Z" fill="#E1E2EB"/>
<path d="M584.235 353.811V413.412C584.235 417.359 581.031 420.563 577.084 420.563H517.483C513.537 420.563 510.332 417.359 510.332 413.412V353.811C510.332 349.865 513.537 346.66 517.483 346.66H577.084C581.031 346.66 584.235 349.865 584.235 353.811Z" stroke="#4E5A88" stroke-width="0.896"/>
<path d="M535.756 372.924L525.109 383.571L535.839 394.302" stroke="#4E5A88" stroke-width="1.672" stroke-linecap="round" stroke-linejoin="round"/>
<path d="M558.811 372.924L569.458 383.571L558.728 394.302" stroke="#4E5A88" stroke-width="1.672" stroke-linecap="round" stroke-linejoin="round"/>
<path d="M552.269 372.924L542.299 394.302" stroke="#4E5A88" stroke-width="1.672" stroke-linecap="round" stroke-linejoin="round"/>
<path d="M739.047 166.277V316.625C739.047 324.786 732.439 331.395 724.278 331.395H510.88C502.737 331.395 496.111 324.786 496.111 316.625V166.277C496.111 158.116 502.737 151.508 510.88 151.508H724.278C732.439 151.508 739.047 158.116 739.047 166.277Z" fill="#BABCD1"/>
<path d="M725.054 199.013C725.054 218.459 709.292 234.221 689.846 234.221C670.4 234.221 654.638 218.459 654.638 199.013C654.638 179.567 670.4 163.805 689.846 163.805C709.292 163.805 725.054 179.567 725.054 199.013Z" fill="#F2F3F7"/>
<path d="M638.912 331.395H510.88C502.737 331.395 496.111 324.787 496.111 316.626V292.955L552.137 195.907C555.062 190.833 562.393 190.833 565.318 195.907L607.621 269.176L639.038 323.595C640.555 326.195 640.32 329.156 638.912 331.395Z" fill="white"/>
<path d="M694.125 331.395H571.691L607.621 269.176L626.977 235.647C629.613 231.079 636.203 231.079 638.839 235.647L694.125 331.395Z" fill="#F2F3F7"/>
<path d="M936.969 610.766V752.615H842.582V610.766H936.969Z" fill="#2B476A"/>
<path d="M973.109 610.768V752.617H936.969V610.768H973.109Z" fill="#4E5A88"/>
<path d="M968.678 616.215V620.742H942.144V616.215H968.678Z" fill="#BABCD1"/>
<path d="M968.678 625.941V630.467H942.144V625.941H968.678Z" fill="#BABCD1"/>
<path d="M968.678 635.664V640.191H942.144V635.664H968.678Z" fill="#BABCD1"/>
<path d="M964.678 691.391V695.918H938.144V691.391H964.678Z" fill="#BABCD1"/>
<path d="M968.678 655.115V659.642H942.144V655.115H968.678Z" fill="#BABCD1"/>
<path d="M968.678 664.84V669.367H942.144V664.84H968.678Z" fill="#BABCD1"/>
<path d="M968.678 674.566V679.093H942.144V674.566H968.678Z" fill="#BABCD1"/>
<path d="M968.678 684.289V688.816H942.144V684.289H968.678Z" fill="#BABCD1"/>
<path d="M968.678 694.016V698.543H942.144V694.016H968.678Z" fill="#BABCD1"/>
<path d="M968.678 703.742V708.269H942.144V703.742H968.678Z" fill="#BABCD1"/>
<path d="M968.678 713.465V717.992H942.144V713.465H968.678Z" fill="#BABCD1"/>
<path d="M968.678 723.191V727.718H942.144V723.191H968.678Z" fill="#BABCD1"/>
<path d="M968.678 732.918V737.445H942.144V732.918H968.678Z" fill="#BABCD1"/>
<path d="M968.678 742.641V747.168H942.144V742.641H968.678Z" fill="#BABCD1"/>
<path d="M827.247 752.616H875.217C875.217 752.616 877.898 744.074 872.088 733.492C872.088 733.492 868.228 736.588 856.662 734.494C856.662 734.494 851.835 738.592 848.502 740.194C845.151 741.815 825.954 745.585 827.247 752.616Z" fill="#000E1B"/>
<path d="M830.593 617.354C833.691 635.841 847.988 698.386 854.134 735.337C865.366 736.294 870.761 735.005 873.619 734.346C873.059 721.462 871.951 690.641 872.083 677.126C872.296 654.284 873.368 624.161 863.313 607.631L829.501 610.292C829.707 612.078 829.895 613.53 830.061 614.568C830.222 615.563 830.407 616.484 830.593 617.354Z" fill="#002C54"/>
<path d="M740.362 752.245L788.332 752.676C788.332 752.676 791.087 744.158 785.373 733.524C785.373 733.524 781.485 736.586 769.938 734.388C769.938 734.388 765.075 738.442 761.728 740.014C758.362 741.605 739.132 745.203 740.362 752.245Z" fill="#000D1B"/>
<path d="M768.506 734.256C777.673 736.526 784.312 736.303 787.455 735.949C790.006 721.098 794.035 688.42 797.662 673.102C803.288 649.294 808.795 616.55 804.969 604.868L771.709 596.516C771.599 597.569 768.891 697.779 768.506 734.256Z" fill="#001C38"/>
<path d="M900.876 562.424C900.208 555.852 899.438 551.051 899.438 551.051L862.278 560.146L830.716 567.337C819.014 569.944 804.875 573.082 792.413 575.899C778.429 579.077 769.145 589.698 772.209 603.702L775.713 620.687C795.271 620.42 887.235 611.603 895.1 607.633C903.985 603.144 906.661 587.277 900.876 562.424Z" fill="#001C37"/>
<path d="M956.344 562.424C955.676 555.852 952.471 548.799 952.471 548.799L917.749 560.145L886.182 567.337C874.482 569.944 860.345 573.081 847.883 575.898C833.899 579.076 824.615 589.698 827.677 603.702L831.183 620.687C850.741 620.42 932.493 617.571 950.568 607.633C959.292 602.836 962.131 587.277 956.344 562.424Z" fill="#002C54"/>
<path d="M852.339 509.168C852.339 509.168 868.843 501.713 873.386 509.19C875.872 513.285 874.152 520.888 868.524 524.078C862.894 527.27 831.086 540.724 801.065 548.226C801.065 548.226 799.781 544.049 797.716 539.662C797.716 539.662 811.184 534.073 824.572 524.67C837.962 515.267 852.339 509.168 852.339 509.168Z" fill="#DC9594"/>
<path d="M856.465 457.629L842.32 514.126C842.32 514.126 843.781 528.408 858.205 521.399C872.631 514.388 882.19 469.378 882.19 469.378L856.465 457.629Z" fill="#DC9594"/>
<path d="M880.395 489.228C878.644 488.805 876.974 488.343 875.365 487.859C873.715 487.377 872.146 486.874 870.656 486.35C857.216 481.742 849.952 476.21 849.952 476.21C854.177 457.839 859.268 445.505 863.795 437.376C863.916 437.176 864.037 436.993 864.138 436.773C864.257 436.571 864.378 436.37 864.499 436.168C866.935 432.124 870.436 428.724 874.34 425.927C874.743 425.645 875.123 425.384 875.526 425.102L877.196 454.599L877.478 457.638L880.395 489.228Z" fill="white"/>
<path d="M880.395 489.228C878.644 488.805 876.974 488.343 875.365 487.859C873.715 487.377 872.146 486.874 870.656 486.35C873.478 466.482 876.029 453.996 876.029 453.996L877.477 457.638L880.395 489.228Z" fill="#B0B3CA"/>
<path d="M880.395 489.228C878.644 488.805 876.974 488.343 875.365 487.859C873.715 487.377 872.146 486.874 870.656 486.35C873.478 466.482 876.029 453.996 876.029 453.996L877.477 457.638L880.395 489.228Z" stroke="#E1E2EB"/>
<path d="M963.898 438.22C963.557 446.953 962.028 460.978 960.699 475.063C960.277 479.53 959.874 484.016 959.533 488.342C959.291 491.038 955.227 505.424 955.066 508.001C954.342 520.315 948.304 529.531 954.018 548.283C955.387 552.77 955.728 555.083 955.728 556.935C955.728 558.222 954.06 559.571 953.395 559.932C951.001 561.32 946.293 562.287 940.578 562.991H940.558C929.311 564.36 914.139 564.621 904.983 564.621C892.689 564.621 874.239 562.669 871.906 559.571C869.772 556.733 871.743 552.609 872.751 546.914C877.277 521.219 875.669 507.819 875.387 489.267C875.387 488.805 875.365 488.342 875.365 487.858C874.903 459.247 873.013 434.759 874.34 425.926C874.743 425.644 875.125 425.383 875.528 425.101C877.478 423.774 879.389 422.586 881.24 421.541C881.403 421.46 881.604 421.339 881.804 421.218C882.367 420.897 882.953 420.595 883.496 420.293C883.696 420.172 883.918 420.071 884.138 419.972C888.303 417.939 894.38 415.765 897.861 414.559C898.305 414.418 898.706 414.277 899.049 414.176C902.328 413.976 905.89 413.934 909.732 414.035C913.072 414.136 918.184 414.579 923.738 415.303H923.757C930.035 416.108 936.896 417.294 942.349 418.784C942.349 418.784 942.408 418.803 942.448 418.823C943.475 419.146 950.137 421.64 957.077 429.066C959.392 431.52 961.766 434.539 963.898 438.22Z" fill="white"/>
<path d="M954.019 548.283C955.388 552.77 955.729 555.084 955.729 556.935C955.729 558.222 954.059 559.571 953.396 559.932C951 561.32 946.294 562.287 940.579 562.991C942.933 562.709 946.995 558.975 946.997 555.606C946.997 553.248 943.939 537.316 944.784 527.035C945.629 516.774 947.3 500.436 944.12 487.357C940.921 474.278 937.923 457.074 937.923 457.074L955.85 467.9C955.85 467.9 958.165 471.14 960.7 475.063C960.278 479.53 959.874 484.016 959.533 488.342C959.291 491.038 948.305 529.531 954.019 548.283Z" fill="#B0B3CA"/>
<path d="M954.019 548.283C955.388 552.77 955.729 555.084 955.729 556.935C955.729 558.222 954.059 559.571 953.396 559.932C951 561.32 946.294 562.287 940.579 562.991C942.933 562.709 946.995 558.975 946.997 555.606C946.997 553.248 943.939 537.316 944.784 527.035C945.629 516.774 947.3 500.436 944.12 487.357C940.921 474.278 937.923 457.074 937.923 457.074L955.85 467.9C955.85 467.9 958.165 471.14 960.7 475.063C960.278 479.53 959.874 484.016 959.533 488.342C959.291 491.038 948.305 529.531 954.019 548.283Z" stroke="#E1E2EB"/>
<path d="M875.148 362.602C875.148 362.602 876.699 381.353 882.917 382.613C889.133 383.871 887.608 375.905 887.608 375.905L886.738 367L875.148 362.602Z" fill="#002C54"/>
<path d="M903.817 430.552C891.644 429.104 896.191 417.273 897.861 414.557C898.303 414.414 900.396 413.771 900.558 413.67C900.578 413.65 900.598 413.65 900.598 413.65C901.001 413.329 901.302 412.845 901.544 412.242C902.73 409.124 902.187 402.906 902.147 402.503V402.483V401.356C902.347 400.612 902.549 399.908 902.71 399.244L909.109 394.214L922.651 383.57C922.651 383.57 919.049 401.376 921.947 412.603C922.167 413.45 922.61 414.637 923.738 415.301C923.738 415.321 923.758 415.301 923.758 415.301C924.119 415.543 924.562 415.704 925.105 415.783C928.425 417.352 923.797 432.926 903.817 430.552Z" fill="#DC9594"/>
<path d="M914.546 394.887C914.546 394.887 914.432 406.771 901.533 412.236C902.732 409.134 902.18 402.913 902.142 402.514L907.545 398.271L914.546 394.887Z" fill="#CC6362"/>
<path d="M878.121 365.272C878.121 365.272 880.934 404.176 891.439 407.482C891.439 407.482 904.823 408.742 914.432 395.816C917.2 392.091 920.699 391.256 921.842 386.758C923.698 379.453 926.316 365.98 922.976 357.86C918.22 346.295 878.572 337.114 878.121 365.272Z" fill="#DC9594"/>
<path d="M923.139 351.439C922.966 344.372 915.813 341.731 915.813 341.731C908.692 338.398 893.892 339.837 878.637 343.24C875.06 344.038 870.572 341.843 868.073 343.576C865.054 345.67 868.06 355.24 868.06 355.24C873.944 373.061 895.6 367.267 902.109 365.068C903.656 369.656 903.457 376.036 907.315 379.326C909.514 381.2 913.334 381.254 917.22 380.606C917.699 381.516 919.495 382.318 919.86 383.566C921.084 387.733 920.909 394.245 920.871 399.272L922.707 398.375C922.945 397.015 941.94 352.022 923.139 351.439Z" fill="#002C54"/>
<path d="M888.896 378.373C889.445 381.603 887.853 384.57 885.338 384.998C882.825 385.426 880.34 383.152 879.789 379.922C879.24 376.692 880.833 373.726 883.348 373.298C885.863 372.87 888.345 375.143 888.896 378.373Z" stroke="white" stroke-width="0.501"/>
<path d="M901.59 376.002C902.139 379.232 900.547 382.199 898.032 382.627C895.519 383.055 893.034 380.781 892.483 377.551C891.934 374.321 893.527 371.355 896.042 370.927C898.557 370.499 901.041 372.772 901.59 376.002Z" stroke="white" stroke-width="0.501"/>
<path d="M888.896 378.372C888.896 378.372 889.452 377.469 892.375 377.722" stroke="white" stroke-width="0.501"/>
<path d="M901.699 376.775L912.551 375.041" stroke="white" stroke-width="0.501"/>
<path d="M913.348 388.816C920.819 391.678 923.154 373.286 916.058 372.47C910.676 371.851 910.457 379.36 910.457 379.36C910.457 379.36 909.081 387.182 913.348 388.816Z" fill="#DC9594"/>
<path d="M985.189 516.612L985.187 516.63C981.903 520.442 969.441 523.218 963.445 517.948C961.562 516.269 959.435 511.846 957.344 506.355C952.029 492.32 946.996 471.323 946.996 471.323L974.885 457.074C974.885 457.074 978.472 473.16 981.563 488.449C981.563 488.449 981.59 488.602 981.646 488.873C982.653 493.771 983.589 498.587 984.326 502.722C984.355 502.838 984.367 502.935 984.378 503.049C985.115 507.985 985.588 513.131 985.189 516.612Z" fill="#DC9594"/>
<path d="M985.189 516.614L985.187 516.632C984.947 518.676 984.385 520.142 983.376 520.662C983.215 520.765 980.924 522.128 980.765 522.231C977.354 524.316 971.17 527.864 963.477 531.17C944.822 539.228 917.722 548.577 903.112 552.86C903.112 552.86 901.67 548.732 899.418 544.433C899.418 544.433 912.634 538.297 925.625 528.348C938.632 518.418 957.344 506.356 957.344 506.356L962.069 500.799C962.069 500.799 978.865 485.34 981.563 488.451C981.563 488.451 981.59 488.604 981.646 488.875C982.047 490.487 983.382 496.418 984.326 502.723C984.355 502.839 984.367 502.936 984.378 503.05C985.115 507.986 985.588 513.133 985.189 516.614Z" fill="#DC9594"/>
<path d="M901.35 542.344C901.35 542.344 898.066 544.323 894.72 543.619C892.869 543.229 892.122 542.472 890.753 542.232C889.384 541.99 885.739 541.541 883.933 540.656C882.129 539.769 881.426 539.672 881.489 541.483C881.552 543.296 885.112 544.863 886.078 545.365C887.044 545.867 888.256 547.474 888.386 547.676C888.518 547.878 882.453 551.053 880.821 550.408C880.821 550.408 880.337 551.868 880.611 552.684C880.887 553.498 882.135 553.786 882.233 554.194C882.329 554.604 881.945 555.442 882.216 556.092C882.485 556.744 883.599 556.745 884.049 557.801C884.499 558.857 884.004 558.876 884.331 559.977C884.66 561.08 886.068 561.277 886.335 561.846C886.602 562.415 886.462 563.079 887.052 563.471C887.644 563.863 893.098 562.111 895.09 561.257C897.08 560.405 902.402 552.744 908.29 550.133L901.35 542.344Z" fill="#DC9594"/>
<g opacity="0.5">
<path d="M915.466 374.996C912.996 377.782 913.565 381.144 913.885 384.502C911.606 381.756 911.566 376.274 915.466 374.996Z" fill="#CC6362"/>
<path d="M916.633 378.488C915.086 378.716 913.872 379.911 913.619 381.402L912.388 380.961C913.132 379.356 914.901 378.257 916.633 378.488Z" fill="#CC6362"/>
</g>
<path d="M936.463 451.794C939.157 462.994 947.621 484.216 947.621 484.216C953.55 485.2 961.501 484.106 968.091 481.741C975.694 479.009 981.127 473.272 981.127 473.272C981.127 473.272 975.513 457.494 970.474 446.157C965.953 435.981 963.236 432.182 961.279 430.165C958.332 427.079 953.578 423.539 950.205 421.93L936.463 451.794Z" fill="white"/>
<path d="M971.732 459.107L955.366 452.046L942.471 418.82C942.471 418.82 944.834 419.538 947.945 420.795H947.96C948.02 420.826 948.155 420.87 948.379 420.96C948.455 420.991 948.543 421.019 948.619 421.064C951.401 422.366 962.188 428.724 969.652 451.822C969.712 452.017 969.771 452.21 969.832 452.405C970.625 455.068 971.208 457.208 971.522 458.315C971.553 458.42 971.582 458.524 971.613 458.643C971.656 458.793 971.687 458.957 971.732 459.107Z" fill="white"/>
<path d="M929.23 577.684H886.805V573.533H929.23C930.376 573.533 931.304 574.462 931.304 575.608C931.304 576.755 930.376 577.684 929.23 577.684Z" fill="#3D5F7D"/>
<path d="M906.274 577.685H800.049C798.778 577.685 797.662 576.836 797.321 575.612L775.58 497.345C775.098 495.613 776.402 493.9 778.2 493.9H880.921C883.315 493.9 885.415 495.495 886.056 497.802L907.719 575.785C907.983 576.74 907.265 577.685 906.274 577.685Z" fill="#3D5F7D"/>
<path d="M902.43 577.685H796.205C794.934 577.685 793.818 576.836 793.477 575.612L771.736 497.345C771.254 495.613 772.557 493.9 774.354 493.9H877.077C879.471 493.9 881.571 495.495 882.212 497.802L903.875 575.785C904.139 576.74 903.421 577.685 902.43 577.685Z" fill="#656F97"/>
<path d="M482.26 528.101L493.859 514.834C493.859 514.834 493.977 509.193 494.582 507.972C495.188 506.751 496.675 502.269 497.511 501.744C498.344 501.218 500.095 501.603 500.095 501.603C500.095 501.603 501.769 500.935 502.535 500.893C503.3 500.851 504.771 501.473 504.771 501.473C504.771 501.473 506.599 501.248 507.365 501.206C508.131 501.164 508.388 501.365 508.388 501.365C508.388 501.365 511.163 497.796 512.535 496.569C513.909 495.342 515.987 493.11 516.637 493.083C517.25 493.057 517.582 494.12 517.197 495.293C516.813 496.466 514.971 498.424 514.971 498.424L509.836 507.212C509.836 507.212 510.773 506.777 511.266 506.43C511.758 506.083 514.996 502.707 515.197 502.568C515.398 502.429 516.872 501.325 517.82 502.297C518.768 503.27 512.456 511.728 511.432 512.873C510.406 514.015 504.371 517.498 504.371 517.498C504.371 517.498 498.457 529.648 497.863 530.448C497.267 531.249 482.26 528.101 482.26 528.101Z" fill="#DC9594"/>
<path d="M493.002 468.881C493.002 468.881 486.128 508.698 479.659 509.622C479.659 509.622 453.83 510.664 448.078 479.332C443.087 452.159 463.102 446.365 472.464 448.443C481.824 450.521 495.012 451.873 493.002 468.881Z" fill="#DC9594"/>
<path d="M470.175 503.251C470.175 503.251 466.556 508.129 465.287 519.944C465.287 519.944 454.532 521.48 444.614 516.374C444.614 516.374 449.96 499.711 450.614 481.619" fill="#DC9594"/>
<path d="M462.892 441.779C448.778 444.897 449.907 453.69 449.907 453.69C443.299 455.326 441.879 458.053 441.933 470.251C441.987 482.447 446.402 497.093 448.834 498.285C451.268 499.477 465.066 499.535 466.218 499.118C467.37 498.699 472.2 487.508 471.075 485.54C469.947 483.572 471.129 475.829 474.343 475.537C477.557 475.243 476.927 480.225 476.927 480.225L479.57 479.645L481.608 474.644C500.258 475.754 505.079 454.499 505.079 454.499C500.6 451.578 477.004 438.661 462.892 441.779Z" fill="#002C54"/>
<path d="M306.215 711.316L320.486 713.379L315.759 730.043L300.302 726.144C300.302 726.144 294.015 717.621 303.509 711.316C303.968 711.011 305.466 711.146 306.215 711.316Z" fill="#DC9594"/>
<path d="M412.734 668.515L391.699 604.826C391.699 604.826 385.324 602.555 382.058 604.826C382.058 604.826 360.148 616.609 362.484 650.207C364.246 675.535 369.594 703.006 371.761 714.022L315.641 711.948C315.641 711.948 308.718 720.176 313.198 730.888C313.198 730.888 383.713 749.854 393.647 751.607C401.72 753.032 410.556 754.129 414.821 750.473C422.337 744.034 412.734 668.515 412.734 668.515Z" fill="#001C38"/>
<path d="M372.663 711.316L386.934 713.379L382.207 730.043L366.75 726.144C366.75 726.144 360.463 717.621 369.957 711.316C370.416 711.011 371.914 711.146 372.663 711.316Z" fill="#DC9594"/>
<path d="M367.484 720.051C367.164 723.332 370.035 726.287 369.51 727.105C368.985 727.921 359.392 744.016 359.392 744.016C359.392 744.016 366.634 747.17 365.466 751.727H347.125C347.125 751.727 342.335 747.404 342.452 741.213C342.452 741.213 343.698 734.087 346.97 727.778C350.24 721.469 357.676 707.228 357.676 707.228C357.676 707.228 359.933 706.316 363.79 707.345C368.307 708.549 372.663 711.314 372.663 711.314C372.663 711.314 368.271 711.944 367.484 720.051Z" fill="#656F97"/>
<path d="M514.402 737.093C509.874 720.197 467.269 648.063 452.855 628.587C423.251 615.732 391.699 604.824 391.699 604.824C378.648 607.94 372.221 634.235 379.624 651.765C384.701 663.79 416.912 694.056 436.636 711.877L381.899 711.81C381.899 711.81 375.451 721.45 381.294 730.604C381.294 730.604 472.333 751.302 480.317 752.472C488.303 753.64 506.221 752.472 506.221 752.472C506.221 752.472 518.214 751.317 514.402 737.093Z" fill="#002C54"/>
<path d="M301.038 720.051C300.718 723.332 303.589 726.287 303.064 727.105C302.539 727.921 292.946 744.016 292.946 744.016C292.946 744.016 300.188 747.17 299.02 751.727H280.679C280.679 751.727 275.889 747.404 276.006 741.213C276.006 741.213 277.252 734.087 280.524 727.778C283.796 721.469 291.23 707.228 291.23 707.228C291.23 707.228 293.487 706.316 297.344 707.345C301.861 708.549 306.217 711.314 306.217 711.314C306.217 711.314 301.827 711.944 301.038 720.051Z" fill="#656F97"/>
<path d="M585.586 517.843L553.415 567.784L533.58 545.694L514.769 570.596L519.681 573.301L517.782 574.711C517.782 574.711 557.205 596.686 562.301 592.602C567.396 588.518 593.652 524.171 593.652 524.171L585.586 517.843Z" fill="#DC9594"/>
<path d="M608.482 498.562C608.009 498.515 604.999 500.931 603.546 502.124L605.222 498.917C605.222 498.917 607.435 496.78 608.231 495.606C609.027 494.432 608.609 493.259 607.979 493.196C607.537 493.153 604.89 495.252 603.355 496.503L603.692 495.859C603.692 495.859 605.906 493.721 606.702 492.546C607.498 491.372 607.079 490.198 606.451 490.135C605.823 490.074 600.729 494.349 600.729 494.349L598.249 497.67L600.119 494.037C600.119 494.037 601.103 492.833 601.76 491.52C602.417 490.207 601.943 489.807 601.578 489.368C601.213 488.931 597.785 491.484 596.909 492.506C596.033 493.526 593.261 497.666 593.043 498.249L590.178 504.177C589.996 502.462 589.708 499.52 589.504 497.648C589.213 494.949 586.769 494.311 586.684 495.624C586.599 496.937 585.238 503.393 585.547 506.894C585.856 510.395 586.443 512.693 586.661 514.663C586.88 516.633 584.837 520.568 584.837 520.568C584.837 520.568 593.007 525.641 594.358 524.123C595.709 522.605 598.583 519.231 599.973 516.96C601.881 513.842 603.171 509.738 603.171 509.738L605.724 504.283C605.724 504.283 607.937 502.146 608.733 500.972C609.531 499.798 609.11 498.625 608.482 498.562Z" fill="#DC9594"/>
<path d="M536.303 548.818C536.303 548.818 530.76 572.2 519.674 583.286L491.309 572.489C491.309 572.489 478.147 594.625 465.273 611.597C460.326 618.151 458.683 627.377 452.869 628.587C452.508 628.461 452.164 628.352 451.803 628.262C436.041 623.531 412.786 628.551 393.593 621.419C372.396 613.529 376.512 609.087 376.512 609.087C376.512 609.087 389.368 585.922 396.662 561.385C399.912 550.534 402.169 540.476 403.668 532.622C406.358 518.719 417.498 507.85 431.545 505.954C431.708 505.936 431.853 505.9 432.015 505.882C448.084 503.842 490.153 508.807 498.332 512.31C506.511 515.813 536.303 548.818 536.303 548.818Z" fill="#656F97"/>
<path d="M491.308 572.49C491.308 572.49 478.146 594.626 465.272 611.598C460.325 618.152 458.682 627.378 452.868 628.588C455.414 627.685 459.638 614.288 461.137 611.273C462.654 608.276 465.055 605.26 470.255 594.734C475.437 584.19 482.472 568.736 482.472 568.736L491.308 572.49Z" fill="#7E87A8"/>
<path d="M436.636 711.877C446.149 710.458 456.257 711.731 464.933 715.943C455.611 714.302 446.034 713.103 436.636 711.877Z" fill="black"/>
<path d="M1073.87 331.402H978.062C971.921 331.402 966.945 336.38 966.945 342.521V365.153C966.945 370.819 971.181 375.493 976.659 376.183C977.462 376.284 978.062 376.967 978.062 377.776V390.165C978.062 390.882 978.981 391.176 979.398 390.593L989.157 376.947C989.46 376.523 989.949 376.272 990.471 376.272H1073.87C1080.01 376.272 1084.99 371.294 1084.99 365.153V342.521C1084.99 336.38 1080.01 331.402 1073.87 331.402Z" fill="white"/>
<g opacity="0.76268">
<path d="M1073.87 331.402H978.062C971.921 331.402 966.945 336.38 966.945 342.521V365.153C966.945 370.819 971.181 375.493 976.659 376.183C977.462 376.284 978.062 376.967 978.062 377.776V390.165C978.062 390.882 978.981 391.176 979.398 390.593L989.157 376.947C989.46 376.523 989.949 376.272 990.471 376.272H1073.87C1080.01 376.272 1084.99 371.294 1084.99 365.153V342.521C1084.99 336.38 1080.01 331.402 1073.87 331.402Z" stroke="#4E5A88" stroke-width="0.896"/>
</g>
<path d="M992.761 353.803C992.761 355.825 991.121 357.462 989.099 357.462C987.079 357.462 985.439 355.825 985.439 353.803C985.439 351.781 987.079 350.141 989.099 350.141C991.121 350.141 992.761 351.781 992.761 353.803Z" stroke="#4E5A88" stroke-width="0.896"/>
<path d="M1011.19 353.803C1011.19 355.825 1009.55 357.462 1007.53 357.462C1005.51 357.462 1003.87 355.825 1003.87 353.803C1003.87 351.781 1005.51 350.141 1007.53 350.141C1009.55 350.141 1011.19 351.781 1011.19 353.803Z" stroke="#4E5A88" stroke-width="0.896"/>
<g opacity="0.99495">
<path d="M1029.63 353.803C1029.63 355.825 1027.99 357.462 1025.97 357.462C1023.95 357.462 1022.31 355.825 1022.31 353.803C1022.31 351.781 1023.95 350.141 1025.97 350.141C1027.99 350.141 1029.63 351.781 1029.63 353.803Z" stroke="#4E5A88" stroke-width="0.896"/>
</g>
<g opacity="0.80717">
<path d="M1048.06 353.803C1048.06 355.825 1046.42 357.462 1044.4 357.462C1042.38 357.462 1040.74 355.825 1040.74 353.803C1040.74 351.781 1042.38 350.141 1044.4 350.141C1046.42 350.141 1048.06 351.781 1048.06 353.803Z" stroke="#4E5A88" stroke-width="0.896"/>
</g>
<g opacity="0.611687">
<path d="M1066.49 353.803C1066.49 355.825 1064.85 357.462 1062.83 357.462C1060.81 357.462 1059.17 355.825 1059.17 353.803C1059.17 351.781 1060.81 350.141 1062.83 350.141C1064.85 350.141 1066.49 351.781 1066.49 353.803Z" stroke="#4E5A88" stroke-width="0.896"/>
</g>
<path d="M316.804 430.629H412.613C418.754 430.629 423.73 435.608 423.73 441.749V464.382C423.73 470.046 419.494 474.72 414.016 475.412C413.213 475.513 412.613 476.195 412.613 477.004V489.394C412.613 490.111 411.694 490.405 411.277 489.822L401.518 476.176C401.215 475.752 400.725 475.499 400.203 475.499H316.804C310.663 475.499 305.685 470.521 305.685 464.382V441.749C305.685 435.608 310.663 430.629 316.804 430.629Z" fill="#E1E2EB"/>
<path d="M316.804 430.629H412.613C418.754 430.629 423.73 435.608 423.73 441.749V464.382C423.73 470.046 419.494 474.72 414.016 475.412C413.213 475.513 412.613 476.195 412.613 477.004V489.394C412.613 490.111 411.694 490.405 411.277 489.822L401.518 476.176C401.215 475.752 400.725 475.499 400.203 475.499H316.804C310.663 475.499 305.685 470.521 305.685 464.382V441.749C305.685 435.608 310.663 430.629 316.804 430.629Z" stroke="#B0B3CA"/>
<g opacity="0.611687">
<path d="M397.913 453.029C397.913 455.051 399.553 456.689 401.573 456.689C403.595 456.689 405.234 455.051 405.234 453.029C405.234 451.007 403.595 449.369 401.573 449.369C399.553 449.369 397.913 451.007 397.913 453.029Z" stroke="#B0B3CA"/>
</g>
<g opacity="0.80717">
<path d="M379.481 453.029C379.481 455.051 381.121 456.689 383.141 456.689C385.163 456.689 386.802 455.051 386.802 453.029C386.802 451.007 385.163 449.369 383.141 449.369C381.121 449.369 379.481 451.007 379.481 453.029Z" stroke="#B0B3CA"/>
</g>
<g opacity="0.99495">
<path d="M361.048 453.029C361.048 455.051 362.688 456.689 364.708 456.689C366.73 456.689 368.369 455.051 368.369 453.029C368.369 451.007 366.73 449.369 364.708 449.369C362.688 449.369 361.048 451.007 361.048 453.029Z" stroke="#B0B3CA"/>
</g>
<path d="M342.613 453.029C342.613 455.051 344.253 456.689 346.275 456.689C348.295 456.689 349.934 455.051 349.934 453.029C349.934 451.007 348.295 449.369 346.275 449.369C344.253 449.369 342.613 451.007 342.613 453.029Z" stroke="#B0B3CA"/>
<path d="M324.18 453.029C324.18 455.051 325.82 456.689 327.84 456.689C329.862 456.689 331.501 455.051 331.501 453.029C331.501 451.007 329.862 449.369 327.84 449.369C325.82 449.369 324.18 451.007 324.18 453.029Z" stroke="#B0B3CA"/>
<path d="M895.421 279.185H720.796C711.165 279.185 703.358 271.378 703.358 261.747C703.358 252.116 711.165 244.309 720.796 244.309H895.421C905.052 244.309 912.859 252.116 912.859 261.747C912.859 271.378 905.052 279.185 895.421 279.185Z" fill="white"/>
<path d="M895.421 279.185H720.796C711.165 279.185 703.358 271.378 703.358 261.747C703.358 252.116 711.165 244.309 720.796 244.309H895.421C905.052 244.309 912.859 252.116 912.859 261.747C912.859 271.378 905.052 279.185 895.421 279.185Z" stroke="#4E5A88" stroke-width="0.896"/>
<path d="M883.589 251.273C888.707 251.273 892.862 255.429 892.862 260.547C892.862 265.665 888.707 269.82 883.589 269.82C878.471 269.82 874.315 265.665 874.315 260.547C874.315 255.429 878.471 251.273 883.589 251.273Z" stroke="#4E5A88" stroke-width="1.672"/>
<path d="M890.147 267.104L895.267 272.224" stroke="#4E5A88" stroke-width="1.672" stroke-linecap="round"/>
<path d="M630.896 753.456H586.965C579.279 753.456 573.048 747.225 573.048 739.539V695.608C573.048 687.922 579.279 681.691 586.965 681.691H630.896C638.582 681.691 644.813 687.922 644.813 695.608V739.539C644.813 747.225 638.582 753.456 630.896 753.456Z" fill="#092952"/>
<path d="M617.817 753.456H573.886C566.2 753.456 559.969 747.225 559.969 739.539V695.608C559.969 687.922 566.2 681.691 573.886 681.691H617.817C625.503 681.691 631.734 687.922 631.734 695.608V739.539C631.734 747.225 625.503 753.456 617.817 753.456Z" fill="#4E5A88"/>
<path d="M587.377 704.028L607.976 715.921C609.249 716.656 609.249 718.49 607.976 719.225L587.377 731.118C586.106 731.853 584.515 730.934 584.515 729.466V705.68C584.515 704.212 586.106 703.293 587.377 704.028Z" fill="white"/>
<path d="M1085.32 753.455H1027.89C1017.85 753.455 1009.7 745.311 1009.7 735.263V677.834C1009.7 667.786 1017.85 659.641 1027.89 659.641H1085.32C1095.37 659.641 1103.52 667.786 1103.52 677.834V735.263C1103.52 745.311 1095.37 753.455 1085.32 753.455Z" fill="#092952"/>
<path d="M1068.23 753.455H1010.8C1000.75 753.455 992.605 745.311 992.605 735.263V677.834C992.605 667.786 1000.75 659.641 1010.8 659.641H1068.23C1078.27 659.641 1086.42 667.786 1086.42 677.834V735.263C1086.42 745.311 1078.27 753.455 1068.23 753.455Z" fill="#4E5A88"/>
<path d="M1050.78 682.661C1050.78 688.886 1045.74 693.933 1039.51 693.933C1033.29 693.933 1028.24 688.886 1028.24 682.661C1028.24 676.434 1033.29 671.389 1039.51 671.389C1045.74 671.389 1050.78 676.434 1050.78 682.661Z" fill="white"/>
<path d="M1063.01 720.821V737.459C1063.01 738.963 1061.79 740.182 1060.29 740.182H1018.74C1017.23 740.182 1016.01 738.963 1016.01 737.459V720.821C1016.01 707.845 1026.54 697.324 1039.51 697.324C1052.49 697.324 1063.01 707.845 1063.01 720.821Z" fill="white"/>
<path d="M829.712 299.273H792.828C791.297 299.273 790.055 298.033 790.055 296.502C790.055 294.971 791.297 293.73 792.828 293.73H829.712C831.243 293.73 832.483 294.971 832.483 296.502C832.483 298.033 831.243 299.273 829.712 299.273Z" fill="#B0B3CA"/>
<path d="M829.712 299.273H792.828C791.297 299.273 790.055 298.033 790.055 296.502C790.055 294.971 791.297 293.73 792.828 293.73H829.712C831.243 293.73 832.483 294.971 832.483 296.502C832.483 298.033 831.243 299.273 829.712 299.273Z" stroke="#E1E2EB"/>
<path d="M866.614 299.273H839.921C838.39 299.273 837.149 298.033 837.149 296.502C837.149 294.971 838.39 293.73 839.921 293.73H866.614C868.145 293.73 869.385 294.971 869.385 296.502C869.385 298.033 868.145 299.273 866.614 299.273Z" fill="#B0B3CA"/>
<path d="M866.614 299.273H839.921C838.39 299.273 837.149 298.033 837.149 296.502C837.149 294.971 838.39 293.73 839.921 293.73H866.614C868.145 293.73 869.385 294.971 869.385 296.502C869.385 298.033 868.145 299.273 866.614 299.273Z" stroke="#E1E2EB"/>
<path d="M808.499 311.461H792.828C791.297 311.461 790.057 310.22 790.057 308.689C790.057 307.158 791.297 305.918 792.828 305.918H808.499C810.03 305.918 811.27 307.158 811.27 308.689C811.27 310.22 810.03 311.461 808.499 311.461Z" fill="#B0B3CA"/>
<path d="M808.499 311.461H792.828C791.297 311.461 790.057 310.22 790.057 308.689C790.057 307.158 791.297 305.918 792.828 305.918H808.499C810.03 305.918 811.27 307.158 811.27 308.689C811.27 310.22 810.03 311.461 808.499 311.461Z" stroke="#E1E2EB"/>
<path d="M866.614 311.461H817.802C816.271 311.461 815.031 310.22 815.031 308.689C815.031 307.158 816.271 305.918 817.802 305.918H866.614C868.145 305.918 869.385 307.158 869.385 308.689C869.385 310.22 868.145 311.461 866.614 311.461Z" fill="#B0B3CA"/>
<path d="M866.614 311.461H817.802C816.271 311.461 815.031 310.22 815.031 308.689C815.031 307.158 816.271 305.918 817.802 305.918H866.614C868.145 305.918 869.385 307.158 869.385 308.689C869.385 310.22 868.145 311.461 866.614 311.461Z" stroke="#E1E2EB"/>
<path d="M841.448 323.65H792.828C791.297 323.65 790.055 322.409 790.055 320.878C790.055 319.347 791.297 318.107 792.828 318.107H841.448C842.979 318.107 844.22 319.347 844.22 320.878C844.22 322.409 842.979 323.65 841.448 323.65Z" fill="#B0B3CA"/>
<path d="M841.448 323.65H792.828C791.297 323.65 790.055 322.409 790.055 320.878C790.055 319.347 791.297 318.107 792.828 318.107H841.448C842.979 318.107 844.22 319.347 844.22 320.878C844.22 322.409 842.979 323.65 841.448 323.65Z" stroke="#E1E2EB"/>
<path d="M866.614 323.65H850.941C849.41 323.65 848.17 322.409 848.17 320.878C848.17 319.347 849.41 318.107 850.941 318.107H866.614C868.145 318.107 869.385 319.347 869.385 320.878C869.385 322.409 868.145 323.65 866.614 323.65Z" fill="#B0B3CA"/>
<path d="M866.614 323.65H850.941C849.41 323.65 848.17 322.409 848.17 320.878C848.17 319.347 849.41 318.107 850.941 318.107H866.614C868.145 318.107 869.385 319.347 869.385 320.878C869.385 322.409 868.145 323.65 866.614 323.65Z" stroke="#E1E2EB"/>
<path d="M362.644 582.371H233.882C230.069 582.371 226.979 579.279 226.979 575.468V510.469C226.979 506.656 230.069 503.566 233.882 503.566H362.644C366.456 503.566 369.547 506.656 369.547 510.469V575.468C369.547 579.279 366.456 582.371 362.644 582.371Z" fill="#092952"/>
<path d="M233.037 514.211H363.487" stroke="white" stroke-width="0.896" stroke-linecap="round"/>
<path d="M361.625 508.795C361.625 509.667 360.917 510.375 360.045 510.375C359.173 510.375 358.465 509.667 358.465 508.795C358.465 507.923 359.173 507.215 360.045 507.215C360.917 507.215 361.625 507.923 361.625 508.795Z" fill="white"/>
<path d="M353.386 508.795C353.386 509.667 352.678 510.375 351.806 510.375C350.934 510.375 350.226 509.667 350.226 508.795C350.226 507.923 350.934 507.215 351.806 507.215C352.678 507.215 353.386 507.923 353.386 508.795Z" fill="white"/>
<path d="M345.149 508.795C345.149 509.667 344.441 510.375 343.569 510.375C342.697 510.375 341.989 509.667 341.989 508.795C341.989 507.923 342.697 507.215 343.569 507.215C344.441 507.215 345.149 507.923 345.149 508.795Z" fill="white"/>
<path d="M257.354 524.819H235.218C234.014 524.819 233.037 523.842 233.037 522.638C233.037 521.432 234.014 520.455 235.218 520.455H257.354C258.558 520.455 259.535 521.432 259.535 522.638C259.535 523.842 258.558 524.819 257.354 524.819Z" fill="#7780A3"/>
<path d="M257.354 534.899H235.218C234.014 534.899 233.037 533.922 233.037 532.718C233.037 531.512 234.014 530.535 235.218 530.535H257.354C258.558 530.535 259.535 531.512 259.535 532.718C259.535 533.922 258.558 534.899 257.354 534.899Z" fill="#7780A3"/>
<path d="M257.354 544.981H235.218C234.014 544.981 233.037 544.004 233.037 542.8C233.037 541.594 234.014 540.617 235.218 540.617H257.354C258.558 540.617 259.535 541.594 259.535 542.8C259.535 544.004 258.558 544.981 257.354 544.981Z" fill="#7780A3"/>
<path d="M257.354 555.063H235.218C234.014 555.063 233.037 554.086 233.037 552.882C233.037 551.676 234.014 550.699 235.218 550.699H257.354C258.558 550.699 259.535 551.676 259.535 552.882C259.535 554.086 258.558 555.063 257.354 555.063Z" fill="#7780A3"/>
<path d="M257.354 565.141H235.218C234.014 565.141 233.037 564.164 233.037 562.96C233.037 561.754 234.014 560.777 235.218 560.777H257.354C258.558 560.777 259.535 561.754 259.535 562.96C259.535 564.164 258.558 565.141 257.354 565.141Z" fill="#7780A3"/>
<path d="M257.354 575.225H235.218C234.014 575.225 233.037 574.248 233.037 573.044C233.037 571.838 234.014 570.861 235.218 570.861H257.354C258.558 570.861 259.535 571.838 259.535 573.044C259.535 574.248 258.558 575.225 257.354 575.225Z" fill="#7780A3"/>
<path d="M361.307 524.819H265.915C264.709 524.819 263.732 523.842 263.732 522.638C263.732 521.432 264.709 520.455 265.915 520.455H361.307C362.511 520.455 363.488 521.432 363.488 522.638C363.488 523.842 362.511 524.819 361.307 524.819Z" fill="#3D5676"/>
<path d="M361.307 534.899H265.915C264.709 534.899 263.732 533.922 263.732 532.718C263.732 531.512 264.709 530.535 265.915 530.535H361.307C362.511 530.535 363.488 531.512 363.488 532.718C363.488 533.922 362.511 534.899 361.307 534.899Z" fill="#3D5676"/>
<path d="M361.307 544.981H265.915C264.709 544.981 263.732 544.004 263.732 542.8C263.732 541.594 264.709 540.617 265.915 540.617H361.307C362.511 540.617 363.488 541.594 363.488 542.8C363.488 544.004 362.511 544.981 361.307 544.981Z" fill="#3D5676"/>
<path d="M361.307 555.063H265.915C264.709 555.063 263.732 554.086 263.732 552.882C263.732 551.676 264.709 550.699 265.915 550.699H361.307C362.511 550.699 363.488 551.676 363.488 552.882C363.488 554.086 362.511 555.063 361.307 555.063Z" fill="#3D5676"/>
<path d="M361.307 565.141H265.915C264.709 565.141 263.732 564.164 263.732 562.96C263.732 561.754 264.709 560.777 265.915 560.777H361.307C362.511 560.777 363.488 561.754 363.488 562.96C363.488 564.164 362.511 565.141 361.307 565.141Z" fill="#3D5676"/>
<path d="M361.307 575.225H265.915C264.709 575.225 263.732 574.248 263.732 573.044C263.732 571.838 264.709 570.861 265.915 570.861H361.307C362.511 570.861 363.488 571.838 363.488 573.044C363.488 574.248 362.511 575.225 361.307 575.225Z" fill="#3D5676"/>
<path d="M1032.67 157.023C1032.67 189.436 1006.39 215.713 973.977 215.713C941.562 215.713 915.286 189.436 915.286 157.023C915.286 124.61 941.562 98.334 973.977 98.334C1006.39 98.334 1032.67 124.61 1032.67 157.023Z" stroke="#B0B3CA"/>
<path d="M1025 157.023C1025 185.202 1002.16 208.047 973.975 208.047C945.796 208.047 922.95 185.202 922.95 157.023C922.95 128.844 945.796 105.998 973.975 105.998C1002.16 105.998 1025 128.844 1025 157.023Z" fill="#294568"/>
<path d="M978.62 157.023C978.62 159.589 976.541 161.667 973.977 161.667C971.411 161.667 969.331 159.589 969.331 157.023C969.331 154.457 971.411 152.379 973.977 152.379C976.541 152.379 978.62 154.457 978.62 157.023Z" fill="white"/>
<path d="M973.47 156.112C972.768 156.5 971.885 156.247 971.495 155.545L956.489 128.478C956.101 127.777 956.354 126.892 957.056 126.504C957.757 126.114 958.641 126.367 959.029 127.069L974.037 154.136C974.425 154.838 974.172 155.722 973.47 156.112Z" fill="white"/>
<path d="M974.714 157.761C975.281 157.194 976.202 157.194 976.769 157.761L989.751 170.743C990.318 171.31 990.318 172.231 989.751 172.798C989.184 173.365 988.263 173.365 987.696 172.798L974.714 159.816C974.147 159.249 974.147 158.328 974.714 157.761Z" fill="white"/>
<path d="M974.288 116.182V110.314" stroke="white" stroke-width="2" stroke-linecap="round"/>
<path d="M1014.82 157.336H1020.68" stroke="white" stroke-width="2" stroke-linecap="round"/>
<path d="M973.663 197.863V203.731" stroke="white" stroke-width="2" stroke-linecap="round"/>
<path d="M933.135 156.711H927.267" stroke="white" stroke-width="2" stroke-linecap="round"/>
<g opacity="0.5">
<path d="M953.336 121.008L950.402 115.926" stroke="#E1E2EB" stroke-linecap="round"/>
<path d="M1009.01 136.383L1014.09 133.449" stroke="#E1E2EB" stroke-linecap="round"/>
<path d="M993.636 192.061L996.57 197.143" stroke="#E1E2EB" stroke-linecap="round"/>
<path d="M937.961 176.684L932.879 179.618" stroke="#E1E2EB" stroke-linecap="round"/>
</g>
<g opacity="0.5">
<path d="M938.461 136.03L933.379 133.096" stroke="#E1E2EB" stroke-linecap="round"/>
<path d="M994.365 121.508L997.299 116.426" stroke="#E1E2EB" stroke-linecap="round"/>
<path d="M1008.89 177.41L1013.97 180.344" stroke="#E1E2EB" stroke-linecap="round"/>
<path d="M952.983 191.934L950.049 197.016" stroke="#E1E2EB" stroke-linecap="round"/>
</g>
<path d="M276.66 452.381H212.211C202.669 452.381 194.934 444.647 194.934 435.103V370.656C194.934 361.114 202.669 353.379 212.211 353.379H276.66C286.202 353.379 293.937 361.114 293.937 370.656V435.103C293.937 444.647 286.202 452.381 276.66 452.381Z" fill="#092952"/>
<path d="M272.423 443.803H201.104C193.459 443.803 187.261 437.606 187.261 429.96V358.641C187.261 350.996 193.459 344.801 201.104 344.801H272.423C280.068 344.801 286.266 350.996 286.266 358.641V429.96C286.266 437.606 280.068 443.803 272.423 443.803Z" fill="#B0B3CA"/>
<path d="M187.26 352.468C187.26 348.234 190.693 344.801 194.927 344.801H278.598C282.832 344.801 286.265 348.234 286.265 352.468V436.138C286.265 440.372 282.833 443.804 278.599 443.804H194.927C190.693 443.804 187.26 440.371 187.26 436.137V352.468Z" stroke="#E1E2EB"/>
<path d="M223.904 377.294C223.904 370.344 229.561 364.689 236.509 364.689C243.459 364.689 249.115 370.344 249.115 377.294V382.967H223.904V377.294ZM253.907 382.967H253.389V377.294C253.389 367.985 245.818 360.412 236.509 360.412C227.2 360.412 219.631 367.985 219.631 377.294V382.967H219.517C216.901 382.967 214.779 385.087 214.779 387.703V409.077C214.779 411.691 216.901 413.813 219.517 413.813H253.907C256.523 413.813 258.643 411.691 258.643 409.077V387.703C258.643 385.087 256.523 382.967 253.907 382.967Z" fill="#E1E2EB"/>
<path d="M242.271 393.951C242.271 390.538 239.167 387.852 235.63 388.556C233.545 388.973 231.815 390.683 231.38 392.765C230.856 395.275 232.042 397.563 233.985 398.701C234.38 398.93 234.604 399.365 234.485 399.806L233.529 403.343C232.958 405.446 234.542 407.516 236.721 407.516C238.9 407.516 240.484 405.446 239.913 403.343L238.965 399.844C238.844 399.396 239.076 398.957 239.48 398.728C241.145 397.784 242.271 396.004 242.271 393.951Z" fill="#B0B3CA"/>
<path d="M256.612 421.308H216.81C215.687 421.308 214.779 420.398 214.779 419.277C214.779 418.156 215.687 417.246 216.81 417.246H256.612C257.733 417.246 258.643 418.156 258.643 419.277C258.643 420.398 257.733 421.308 256.612 421.308Z" fill="#E1E2EB"/>
<path d="M256.612 428.191H216.81C215.687 428.191 214.779 427.281 214.779 426.16C214.779 425.039 215.687 424.129 216.81 424.129H256.612C257.733 424.129 258.643 425.039 258.643 426.16C258.643 427.281 257.733 428.191 256.612 428.191Z" fill="#E1E2EB"/>
<path d="M1056.5 568.758H1018.56C1012.94 568.758 1008.39 564.204 1008.39 558.585V520.644C1008.39 515.027 1012.94 510.473 1018.56 510.473H1056.5C1062.12 510.473 1066.67 515.027 1066.67 520.644V558.585C1066.67 564.204 1062.12 568.758 1056.5 568.758Z" fill="#092952"/>
<path d="M1054.01 563.707H1012.02C1007.52 563.707 1003.87 560.058 1003.87 555.557V513.57C1003.87 509.071 1007.52 505.422 1012.02 505.422H1054.01C1058.51 505.422 1062.16 509.071 1062.16 513.57V555.557C1062.16 560.058 1058.51 563.707 1054.01 563.707Z" fill="#B0B3CA"/>
<path d="M1003.87 509.936C1003.87 507.443 1005.89 505.422 1008.39 505.422H1057.64C1060.14 505.422 1062.16 507.443 1062.16 509.936V559.194C1062.16 561.686 1060.14 563.707 1057.64 563.707H1008.39C1005.89 563.707 1003.87 561.686 1003.87 559.194V509.936Z" stroke="#E1E2EB"/>
<path d="M1021.24 551.971C1021.07 551.971 1020.91 551.949 1020.75 551.902C1019.78 551.633 1019.23 550.635 1019.5 549.676L1028.31 518.472C1028.58 517.51 1029.59 516.951 1030.54 517.227C1031.5 517.496 1032.06 518.494 1031.79 519.453L1022.97 550.654C1022.75 551.452 1022.02 551.971 1021.24 551.971Z" fill="white"/>
<path d="M1035.98 551.971C1035.81 551.971 1035.65 551.949 1035.48 551.902C1034.52 551.633 1033.97 550.635 1034.24 549.676L1043.05 518.472C1043.32 517.51 1044.33 516.951 1045.28 517.227C1046.24 517.496 1046.8 518.494 1046.53 519.453L1037.71 550.654C1037.49 551.452 1036.76 551.971 1035.98 551.971Z" fill="white"/>
<path d="M1048.61 529.297H1017.41C1016.42 529.297 1015.61 528.49 1015.61 527.492C1015.61 526.493 1016.42 525.686 1017.41 525.686H1048.61C1049.61 525.686 1050.42 526.493 1050.42 527.492C1050.42 528.49 1049.61 529.297 1048.61 529.297Z" fill="white"/>
<path d="M1048.61 543.552H1017.41C1016.42 543.552 1015.61 542.745 1015.61 541.747C1015.61 540.748 1016.42 539.941 1017.41 539.941H1048.61C1049.61 539.941 1050.42 540.748 1050.42 541.747C1050.42 542.745 1049.61 543.552 1048.61 543.552Z" fill="white"/>
<path d="M352.882 383.613H330.316C328.949 383.613 327.841 382.504 327.841 381.139C327.841 379.772 328.949 378.664 330.316 378.664H352.882C354.249 378.664 355.356 379.772 355.356 381.139C355.356 382.504 354.249 383.613 352.882 383.613Z" fill="#F2F3F7"/>
<path d="M375.614 394.597H330.316C328.949 394.597 327.841 393.488 327.841 392.123C327.841 390.756 328.949 389.648 330.316 389.648H375.614C376.981 389.648 378.088 390.756 378.088 392.123C378.088 393.488 376.981 394.597 375.614 394.597Z" fill="#F2F3F7"/>
<path d="M335.666 405.582H330.316C328.949 405.582 327.841 404.473 327.841 403.108C327.841 401.741 328.949 400.633 330.316 400.633H335.666C337.033 400.633 338.14 401.741 338.14 403.108C338.14 404.473 337.033 405.582 335.666 405.582Z" fill="#F2F3F7"/>
<path d="M375.614 405.582H344.073C342.706 405.582 341.599 404.473 341.599 403.108C341.599 401.741 342.706 400.633 344.073 400.633H375.614C376.981 400.633 378.087 401.741 378.087 403.108C378.087 404.473 376.981 405.582 375.614 405.582Z" fill="#F2F3F7"/>
<path d="M375.613 383.613H361.935C360.57 383.613 359.461 382.504 359.461 381.139C359.461 379.772 360.57 378.664 361.935 378.664H375.613C376.98 378.664 378.087 379.772 378.087 381.139C378.087 382.504 376.98 383.613 375.613 383.613Z" fill="#F2F3F7"/>
<path d="M248.36 721.115C245.419 721.115 242.669 721.922 240.315 723.325C239.369 714.9 232.224 708.35 223.547 708.35C214.227 708.35 206.672 715.906 206.672 725.226C206.672 725.851 206.708 726.467 206.773 727.074C206 726.93 205.202 726.85 204.386 726.85C197.269 726.85 191.5 732.62 191.5 739.736C191.5 746.853 197.269 752.622 204.386 752.622H248.36C257.061 752.622 264.114 745.57 264.114 736.869C264.114 728.168 257.061 721.115 248.36 721.115Z" fill="white"/>
<path d="M136.525 653.451C136.099 651.095 136.157 648.685 136.751 646.365C138.737 638.597 141.014 623.985 135.958 608.199C127.524 581.865 93.342 558.541 93.342 558.541C93.342 558.541 102.619 597.404 110.247 613.95C115.832 626.063 125.604 639.85 131.024 647.11C132.528 649.123 133.558 651.445 134.006 653.919C139.533 684.5 138.731 708.172 138.717 708.539L141.283 708.64C141.297 708.27 142.111 684.355 136.525 653.451Z" fill="#E1E2EB"/>
<path d="M163.778 628.689C170.569 607.221 173.727 581.934 173.727 581.934C173.727 581.934 143.078 607.22 140.566 626.787C139.028 638.772 140.94 648.387 142.655 654.042C143.383 656.447 143.646 658.957 143.379 661.452C140.275 690.25 142.706 712.317 142.746 712.655L145.053 712.388C145.015 712.067 142.76 691.531 145.416 664.321C145.779 660.594 147.281 657.074 149.639 654.165C154.025 648.754 160.295 639.699 163.778 628.689Z" fill="#B9BBD0"/>
<path d="M194.935 580.934C194.935 580.934 161.908 593.19 153.272 620.156C148.016 636.568 150.498 651.738 152.553 659.596C153.131 661.801 153.099 664.103 152.548 666.315C144.811 697.345 144.692 729.467 144.692 729.895H147.323C147.323 729.476 147.442 698.119 154.913 667.687C155.655 664.663 156.973 661.821 158.829 659.322C164.462 651.735 174.049 638.087 179.599 626.044C187.41 609.101 194.935 580.934 194.935 580.934Z" fill="#E1E2EB"/>
<path d="M136.662 694.715C135.84 683.427 132.764 673.263 129.036 664.739C128.289 663.031 128.027 661.162 128.265 659.313C128.727 655.754 128.917 650.224 127.494 643.195C124.815 629.966 107.254 601.382 81.8279 599.707C81.8279 599.707 90.6009 613.814 95.1149 625.611C100.826 640.543 108.978 656.159 122.498 662.152C124.874 663.206 126.738 665.178 127.729 667.583C130.988 675.482 133.604 684.71 134.344 694.881L136.662 694.715Z" fill="#B9BBD0"/>
<path d="M119.47 752.617H161.428L172.315 686.092C172.797 683.147 170.524 680.473 167.539 680.473H113.359C110.374 680.473 108.103 683.147 108.585 686.092L119.47 752.617Z" fill="#E1E2EB"/>
<path d="M33.332 752.617H1207.33" stroke="white" stroke-width="1.114" stroke-linecap="round"/>
<path d="M11.0159 760.654L1199.78 755.666" stroke="#E1E2EB"/>
<path d="M905.51 377.135C905.51 377.135 907.769 382.268 903.225 389.79C900.249 394.717 891.812 392.282 886.485 391.057C885.224 390.768 882.957 389.769 882.322 391.434C881.756 393.157 882.34 392.397 881.926 395.689C881.512 398.981 876.875 419.892 892.228 420.754C907.581 421.616 913.97 411.95 913.873 402.039C913.776 392.128 910.422 379.257 910.422 379.257L905.51 377.135Z" fill="#002C54"/>
</svg>
